<!DOCTYPE svg PUBLIC "-//W3C//DTD SVG 1.1//EN" "http://www.w3.org/Graphics/SVG/1.1/DTD/svg11.dtd">
<!-- Uploaded to: SVG Repo, www.svgrepo.com, Transformed by: SVG Repo Mixer Tools -->
<svg version="1.1" id="Layer_1" xmlns="http://www.w3.org/2000/svg" xmlns:xlink="http://www.w3.org/1999/xlink" viewBox="0 0 512 512" xml:space="preserve" width="64px" height="64px" fill="#000000">
<g id="SVGRepo_bgCarrier" stroke-width="0"/>
<g id="SVGRepo_tracerCarrier" stroke-linecap="round" stroke-linejoin="round"/>
<g id="SVGRepo_iconCarrier"> <path d="M383.92,512H128.08c-8.48,0-15.36-6.88-15.36-15.36V15.68c0-8.48,6.88-15.36,15.36-15.36h255.84 c8.48,0,15.36,6.88,15.36,15.36v480.96C399.28,505.12,392.4,512,383.92,512z"/> <rect x="128.08" y="41.28" width="255.84" height="409.36"/> <g> <path style="fill:#999999;" d="M286.4,25.92h-61.44c-2.8,0-5.12-2.32-5.12-5.12l0,0c0-2.8,2.32-5.12,5.12-5.12h61.44 c2.8,0,5.12,2.32,5.12,5.12l0,0C291.52,23.6,289.28,25.92,286.4,25.92z"/> <path style="fill:#999999;" d="M286.72,481.28h-61.44c-2.8,0-5.12-2.32-5.12-5.12l0,0c0-2.8,2.32-5.12,5.12-5.12h61.44 c2.8,0,5.12,2.32,5.12,5.12l0,0C291.84,478.96,289.52,481.28,286.72,481.28z"/> </g> <g> <rect x="153.84" y="207.44" style="fill:#F33052;" width="204.64" height="10.24"/> <rect x="153.84" y="360.96" style="fill:#F33052;" width="204.64" height="10.24"/> </g> <rect x="153.84" y="125.52" style="fill:#FFFFFF;" width="51.2" height="51.2"/> <g> <rect x="230.4" y="125.52" style="fill:#F33052;" width="51.2" height="51.2"/> <rect x="307.28" y="125.52" style="fill:#F33052;" width="51.2" height="51.2"/> <rect x="153.84" y="279.04" style="fill:#F33052;" width="51.2" height="51.2"/> </g> <rect x="230.4" y="279.04" style="fill:#FFFFFF;" width="51.2" height="51.2"/> <rect x="307.28" y="279.04" style="fill:#F33052;" width="51.2" height="51.2"/> <path style="opacity:0.2;fill:#FFFFFF;enable-background:new ;" d="M399.28,56.48V15.36C399.28,6.88,392.4,0,383.92,0H128.08 c-8.48,0-15.36,6.88-15.36,15.36v163.92L399.28,56.48z"/> </g>
</svg>